<svg version="1.0" xmlns="http://www.w3.org/2000/svg" width="933.333" height="933.333" viewBox="0 0 700 700"><path d="M108.5 30.1c-36.8 5.4-66.8 32.8-76.8 70l-2.2 8.4v241c0 227.4.1 241.4 1.8 248.5 8.3 35.3 35.4 62.4 70.7 70.7 7.1 1.7 21.1 1.8 248.5 1.8 225.3 0 241.4-.1 247.7-1.7 36.1-9.3 62.2-35.4 70.5-70.8 1.7-7.1 1.8-21.1 1.8-248s-.1-240.9-1.8-248c-8.2-34.7-33-60.2-68.5-70.3l-7.7-2.2-239-.1c-132.5-.1-241.7.2-245 .7zM175 131.5V175H87.9l.3-31.8c.3-30.8.4-31.8 2.6-36 2.9-5.5 8.4-11.5 12.9-14.3 7.4-4.6 9.3-4.8 41.1-4.9H175v43.5zm292 73V321H233V88h234v116.5zM593.8 91.4c6 3.4 12.1 9.6 15.1 15.4 3.2 6.4 4.1 15.1 4.1 42.4V175h-88V87.9l31.8.3 31.7.3 5.3 2.9zM175 277v44H88v-88h87v44zm437.5 0v43.5l-43.7.3-43.8.2v-88l43.8.2 43.7.3V277zM175 423v44H88v-88h87v44zm291.7 72.7-.2 116.8h-233l-.2-116.8L233 379h234l-.3 116.7zM612.5 423v43.5l-43.7.3-43.8.2v-88l43.8.2 43.7.3V423zM175 569v44h-25.7c-27.4 0-36.1-.9-42.5-4.1-5.8-3-12-9.1-15.4-15.1l-2.9-5.3-.3-31.8-.3-31.7H175v44zm438-18.3c0 14.2-.5 28.7-1.1 32.3-1.2 7.9-4.9 14.8-10.5 20-9.6 8.8-15.4 10-50.6 10H525v-88h88v25.7z"/></svg>