<?xml version="1.0" standalone="no"?>
<!DOCTYPE svg PUBLIC "-//W3C//DTD SVG 20010904//EN"
 "http://www.w3.org/TR/2001/REC-SVG-20010904/DTD/svg10.dtd">
<svg version="1.0" xmlns="http://www.w3.org/2000/svg"
 width="700.000000pt" height="700.000000pt" viewBox="0 0 700.000000 700.000000"
 preserveAspectRatio="xMidYMid meet">
<metadata>
Created by potrace 1.14, written by Peter Selinger 2001-2017
</metadata>
<g transform="translate(0.000000,700.000000) scale(0.100000,-0.100000)"
fill="#000000" stroke="none">
<path d="M1085 6699 c-368 -54 -668 -328 -768 -700 l-22 -84 0 -2410 c0 -2274
1 -2414 18 -2485 83 -353 354 -624 707 -707 71 -17 211 -18 2485 -18 2253 0
2414 1 2477 17 361 93 622 354 705 708 17 71 18 211 18 2480 0 2269 -1 2409
-18 2480 -82 347 -330 602 -685 703 l-77 22 -2390 1 c-1325 1 -2417 -2 -2450
-7z m665 -1014 l0 -435 -436 0 -435 0 3 318 c3 308 4 318 26 360 29 55 84 115
129 143 74 46 93 48 411 49 l302 0 0 -435z m2920 -730 l0 -1165 -1170 0 -1170
0 0 1165 0 1165 1170 0 1170 0 0 -1165z m1268 1131 c60 -34 121 -96 151 -154
32 -64 41 -151 41 -424 l0 -258 -440 0 -440 0 0 436 0 435 318 -3 317 -3 53
-29z m-4188 -1856 l0 -440 -435 0 -435 0 0 440 0 440 435 0 435 0 0 -440z
m4375 0 l0 -435 -437 -3 -438 -2 0 440 0 440 438 -2 437 -3 0 -435z m-4375
-1460 l0 -440 -435 0 -435 0 0 440 0 440 435 0 435 0 0 -440z m2917 -727 l-2
-1168 -1165 0 -1165 0 -2 1168 -3 1167 1170 0 1170 0 -3 -1167z m1458 727 l0
-435 -437 -3 -438 -2 0 440 0 440 438 -2 437 -3 0 -435z m-4375 -1460 l0 -440
-257 0 c-274 0 -361 9 -425 41 -58 30 -120 91 -154 151 l-29 53 -3 318 -3 317
435 0 436 0 0 -440z m4380 183 c0 -142 -5 -287 -11 -323 -12 -79 -49 -148
-105 -200 -96 -88 -154 -100 -506 -100 l-258 0 0 440 0 440 440 0 440 0 0
-257z"/>
</g>
</svg>
